<mxfile host="app.diagrams.net" modified="2023-08-11T12:55:05.947Z" agent="Mozilla/5.0 (Windows NT 10.0; Win64; x64) AppleWebKit/537.36 (KHTML, like Gecko) Chrome/115.0.0.0 Safari/537.36 OPR/101.0.0.0" etag="JYkqAyUQsU0FxUAgHfOK" version="21.6.5" type="device">
  <diagram id="C5RBs43oDa-KdzZeNtuy" name="Page-1">
    <mxGraphModel dx="990" dy="615" grid="1" gridSize="10" guides="1" tooltips="1" connect="1" arrows="1" fold="1" page="1" pageScale="1" pageWidth="827" pageHeight="1169" math="0" shadow="0">
      <root>
        <mxCell id="WIyWlLk6GJQsqaUBKTNV-0" />
        <mxCell id="WIyWlLk6GJQsqaUBKTNV-1" parent="WIyWlLk6GJQsqaUBKTNV-0" />
        <mxCell id="WIyWlLk6GJQsqaUBKTNV-3" value="bsp_setup()&lt;br&gt;capsense_setup()&lt;br&gt;timer_setup()&lt;br&gt;tflm_setup()" style="rounded=1;whiteSpace=wrap;html=1;fontSize=12;glass=0;strokeWidth=1;shadow=0;" parent="WIyWlLk6GJQsqaUBKTNV-1" vertex="1">
          <mxGeometry x="289" y="170" width="180" height="190" as="geometry" />
        </mxCell>
        <mxCell id="RJ1wGjR5T8bTYtRTuJkd-0" value="&lt;b&gt;main&amp;nbsp;&lt;/b&gt;" style="text;html=1;strokeColor=none;fillColor=none;align=center;verticalAlign=middle;whiteSpace=wrap;rounded=0;" parent="WIyWlLk6GJQsqaUBKTNV-1" vertex="1">
          <mxGeometry x="349" y="170" width="60" height="30" as="geometry" />
        </mxCell>
        <mxCell id="RJ1wGjR5T8bTYtRTuJkd-53" style="edgeStyle=orthogonalEdgeStyle;rounded=0;orthogonalLoop=1;jettySize=auto;html=1;exitX=0.5;exitY=1;exitDx=0;exitDy=0;entryX=0.5;entryY=0;entryDx=0;entryDy=0;" parent="WIyWlLk6GJQsqaUBKTNV-1" source="RJ1wGjR5T8bTYtRTuJkd-1" target="RJ1wGjR5T8bTYtRTuJkd-46" edge="1">
          <mxGeometry relative="1" as="geometry" />
        </mxCell>
        <mxCell id="RJ1wGjR5T8bTYtRTuJkd-1" value="&lt;b&gt;main loop&lt;/b&gt;" style="rounded=1;whiteSpace=wrap;html=1;" parent="WIyWlLk6GJQsqaUBKTNV-1" vertex="1">
          <mxGeometry x="299" y="300" width="160" height="30" as="geometry" />
        </mxCell>
        <mxCell id="RJ1wGjR5T8bTYtRTuJkd-7" value="&lt;b&gt;Capsense scan loop&lt;br&gt;&lt;br&gt;&lt;br&gt;&lt;/b&gt;" style="rounded=1;whiteSpace=wrap;html=1;" parent="WIyWlLk6GJQsqaUBKTNV-1" vertex="1">
          <mxGeometry x="289" y="610" width="180" height="60" as="geometry" />
        </mxCell>
        <mxCell id="RJ1wGjR5T8bTYtRTuJkd-20" style="edgeStyle=orthogonalEdgeStyle;rounded=0;orthogonalLoop=1;jettySize=auto;html=1;exitX=1;exitY=0.5;exitDx=0;exitDy=0;entryX=0;entryY=0.5;entryDx=0;entryDy=0;" parent="WIyWlLk6GJQsqaUBKTNV-1" source="RJ1wGjR5T8bTYtRTuJkd-10" target="RJ1wGjR5T8bTYtRTuJkd-18" edge="1">
          <mxGeometry relative="1" as="geometry" />
        </mxCell>
        <mxCell id="RJ1wGjR5T8bTYtRTuJkd-29" style="edgeStyle=orthogonalEdgeStyle;rounded=0;orthogonalLoop=1;jettySize=auto;html=1;exitX=0;exitY=0.5;exitDx=0;exitDy=0;entryX=1;entryY=0.5;entryDx=0;entryDy=0;" parent="WIyWlLk6GJQsqaUBKTNV-1" source="RJ1wGjR5T8bTYtRTuJkd-10" target="RJ1wGjR5T8bTYtRTuJkd-27" edge="1">
          <mxGeometry relative="1" as="geometry" />
        </mxCell>
        <mxCell id="RJ1wGjR5T8bTYtRTuJkd-10" value="Finger detected?" style="rhombus;whiteSpace=wrap;html=1;" parent="WIyWlLk6GJQsqaUBKTNV-1" vertex="1">
          <mxGeometry x="334" y="720" width="90" height="90" as="geometry" />
        </mxCell>
        <mxCell id="RJ1wGjR5T8bTYtRTuJkd-36" style="edgeStyle=orthogonalEdgeStyle;rounded=0;orthogonalLoop=1;jettySize=auto;html=1;exitX=0.5;exitY=1;exitDx=0;exitDy=0;entryX=0;entryY=0.25;entryDx=0;entryDy=0;" parent="WIyWlLk6GJQsqaUBKTNV-1" source="RJ1wGjR5T8bTYtRTuJkd-11" target="RJ1wGjR5T8bTYtRTuJkd-7" edge="1">
          <mxGeometry relative="1" as="geometry">
            <Array as="points">
              <mxPoint x="162" y="960" />
              <mxPoint x="39" y="960" />
              <mxPoint x="39" y="625" />
            </Array>
          </mxGeometry>
        </mxCell>
        <mxCell id="RJ1wGjR5T8bTYtRTuJkd-41" style="edgeStyle=orthogonalEdgeStyle;rounded=0;orthogonalLoop=1;jettySize=auto;html=1;exitX=1;exitY=0.5;exitDx=0;exitDy=0;entryX=0;entryY=0.5;entryDx=0;entryDy=0;" parent="WIyWlLk6GJQsqaUBKTNV-1" source="RJ1wGjR5T8bTYtRTuJkd-11" target="RJ1wGjR5T8bTYtRTuJkd-38" edge="1">
          <mxGeometry relative="1" as="geometry" />
        </mxCell>
        <mxCell id="RJ1wGjR5T8bTYtRTuJkd-11" value="&lt;b&gt;timer_start() &lt;/b&gt;(if stopped)" style="rounded=1;whiteSpace=wrap;html=1;" parent="WIyWlLk6GJQsqaUBKTNV-1" vertex="1">
          <mxGeometry x="101.5" y="860" width="120" height="60" as="geometry" />
        </mxCell>
        <mxCell id="RJ1wGjR5T8bTYtRTuJkd-13" value="No" style="text;html=1;strokeColor=none;fillColor=none;align=center;verticalAlign=middle;whiteSpace=wrap;rounded=0;" parent="WIyWlLk6GJQsqaUBKTNV-1" vertex="1">
          <mxGeometry x="249" y="740" width="60" height="30" as="geometry" />
        </mxCell>
        <mxCell id="RJ1wGjR5T8bTYtRTuJkd-15" value="Yes" style="text;html=1;strokeColor=none;fillColor=none;align=center;verticalAlign=middle;whiteSpace=wrap;rounded=0;" parent="WIyWlLk6GJQsqaUBKTNV-1" vertex="1">
          <mxGeometry x="424" y="740" width="60" height="30" as="geometry" />
        </mxCell>
        <mxCell id="RJ1wGjR5T8bTYtRTuJkd-24" style="edgeStyle=orthogonalEdgeStyle;rounded=0;orthogonalLoop=1;jettySize=auto;html=1;exitX=1;exitY=0.5;exitDx=0;exitDy=0;entryX=1;entryY=0.5;entryDx=0;entryDy=0;" parent="WIyWlLk6GJQsqaUBKTNV-1" source="RJ1wGjR5T8bTYtRTuJkd-18" target="RJ1wGjR5T8bTYtRTuJkd-7" edge="1">
          <mxGeometry relative="1" as="geometry" />
        </mxCell>
        <mxCell id="RJ1wGjR5T8bTYtRTuJkd-18" value="stop_timer (if active);&lt;br&gt;&lt;b&gt;fillInputMatrix()&lt;/b&gt;&lt;br&gt;printXYCoordinates();" style="rounded=1;whiteSpace=wrap;html=1;" parent="WIyWlLk6GJQsqaUBKTNV-1" vertex="1">
          <mxGeometry x="499" y="735" width="120" height="60" as="geometry" />
        </mxCell>
        <mxCell id="RJ1wGjR5T8bTYtRTuJkd-25" value="acquired_data set to &lt;b&gt;true&lt;/b&gt;" style="text;html=1;strokeColor=none;fillColor=none;align=center;verticalAlign=middle;whiteSpace=wrap;rounded=0;" parent="WIyWlLk6GJQsqaUBKTNV-1" vertex="1">
          <mxGeometry x="659" y="690" width="60" height="30" as="geometry" />
        </mxCell>
        <mxCell id="RJ1wGjR5T8bTYtRTuJkd-30" style="edgeStyle=orthogonalEdgeStyle;rounded=0;orthogonalLoop=1;jettySize=auto;html=1;exitX=0.5;exitY=1;exitDx=0;exitDy=0;entryX=0.5;entryY=0;entryDx=0;entryDy=0;" parent="WIyWlLk6GJQsqaUBKTNV-1" source="RJ1wGjR5T8bTYtRTuJkd-27" target="RJ1wGjR5T8bTYtRTuJkd-11" edge="1">
          <mxGeometry relative="1" as="geometry" />
        </mxCell>
        <mxCell id="RJ1wGjR5T8bTYtRTuJkd-37" style="edgeStyle=orthogonalEdgeStyle;rounded=0;orthogonalLoop=1;jettySize=auto;html=1;exitX=0;exitY=0.5;exitDx=0;exitDy=0;entryX=0;entryY=0.75;entryDx=0;entryDy=0;" parent="WIyWlLk6GJQsqaUBKTNV-1" source="RJ1wGjR5T8bTYtRTuJkd-27" target="RJ1wGjR5T8bTYtRTuJkd-7" edge="1">
          <mxGeometry relative="1" as="geometry" />
        </mxCell>
        <mxCell id="RJ1wGjR5T8bTYtRTuJkd-27" value="acquired_data?" style="rhombus;whiteSpace=wrap;html=1;" parent="WIyWlLk6GJQsqaUBKTNV-1" vertex="1">
          <mxGeometry x="114" y="720" width="95" height="90" as="geometry" />
        </mxCell>
        <mxCell id="RJ1wGjR5T8bTYtRTuJkd-31" value="Yes" style="text;html=1;strokeColor=none;fillColor=none;align=center;verticalAlign=middle;whiteSpace=wrap;rounded=0;" parent="WIyWlLk6GJQsqaUBKTNV-1" vertex="1">
          <mxGeometry x="144" y="810" width="60" height="30" as="geometry" />
        </mxCell>
        <mxCell id="RJ1wGjR5T8bTYtRTuJkd-33" value="No" style="text;html=1;strokeColor=none;fillColor=none;align=center;verticalAlign=middle;whiteSpace=wrap;rounded=0;" parent="WIyWlLk6GJQsqaUBKTNV-1" vertex="1">
          <mxGeometry x="54" y="710" width="60" height="30" as="geometry" />
        </mxCell>
        <mxCell id="RJ1wGjR5T8bTYtRTuJkd-35" value="&lt;i&gt;timer interrupt received&lt;/i&gt;" style="text;html=1;strokeColor=none;fillColor=none;align=center;verticalAlign=middle;whiteSpace=wrap;rounded=0;" parent="WIyWlLk6GJQsqaUBKTNV-1" vertex="1">
          <mxGeometry x="229" y="900" width="60" height="30" as="geometry" />
        </mxCell>
        <mxCell id="RJ1wGjR5T8bTYtRTuJkd-51" style="edgeStyle=orthogonalEdgeStyle;rounded=0;orthogonalLoop=1;jettySize=auto;html=1;exitX=0.5;exitY=1;exitDx=0;exitDy=0;entryX=1;entryY=0.5;entryDx=0;entryDy=0;" parent="WIyWlLk6GJQsqaUBKTNV-1" source="RJ1wGjR5T8bTYtRTuJkd-38" target="RJ1wGjR5T8bTYtRTuJkd-1" edge="1">
          <mxGeometry relative="1" as="geometry">
            <Array as="points">
              <mxPoint x="399" y="960" />
              <mxPoint x="789" y="960" />
              <mxPoint x="789" y="315" />
            </Array>
          </mxGeometry>
        </mxCell>
        <mxCell id="RJ1wGjR5T8bTYtRTuJkd-38" value="&lt;b&gt;input_preprocessing()&lt;/b&gt;&lt;br&gt;rescale_image&lt;br&gt;clear_input_matrix&lt;br&gt;reset_timer" style="rounded=1;whiteSpace=wrap;html=1;" parent="WIyWlLk6GJQsqaUBKTNV-1" vertex="1">
          <mxGeometry x="309" y="850" width="180" height="80" as="geometry" />
        </mxCell>
        <mxCell id="RJ1wGjR5T8bTYtRTuJkd-43" style="edgeStyle=orthogonalEdgeStyle;rounded=0;orthogonalLoop=1;jettySize=auto;html=1;exitX=0.5;exitY=1;exitDx=0;exitDy=0;entryX=0.5;entryY=0;entryDx=0;entryDy=0;" parent="WIyWlLk6GJQsqaUBKTNV-1" source="RJ1wGjR5T8bTYtRTuJkd-42" target="RJ1wGjR5T8bTYtRTuJkd-10" edge="1">
          <mxGeometry relative="1" as="geometry" />
        </mxCell>
        <mxCell id="RJ1wGjR5T8bTYtRTuJkd-42" value="&lt;b&gt;acquire_data()&lt;/b&gt;" style="rounded=1;whiteSpace=wrap;html=1;" parent="WIyWlLk6GJQsqaUBKTNV-1" vertex="1">
          <mxGeometry x="319" y="640" width="120" height="20" as="geometry" />
        </mxCell>
        <mxCell id="RJ1wGjR5T8bTYtRTuJkd-47" style="edgeStyle=orthogonalEdgeStyle;rounded=0;orthogonalLoop=1;jettySize=auto;html=1;exitX=0.5;exitY=1;exitDx=0;exitDy=0;entryX=0.5;entryY=0;entryDx=0;entryDy=0;" parent="WIyWlLk6GJQsqaUBKTNV-1" source="RJ1wGjR5T8bTYtRTuJkd-46" target="RJ1wGjR5T8bTYtRTuJkd-7" edge="1">
          <mxGeometry relative="1" as="geometry" />
        </mxCell>
        <mxCell id="RJ1wGjR5T8bTYtRTuJkd-55" style="edgeStyle=orthogonalEdgeStyle;rounded=0;orthogonalLoop=1;jettySize=auto;html=1;exitX=0;exitY=0.5;exitDx=0;exitDy=0;entryX=1;entryY=0.5;entryDx=0;entryDy=0;" parent="WIyWlLk6GJQsqaUBKTNV-1" source="RJ1wGjR5T8bTYtRTuJkd-46" target="RJ1wGjR5T8bTYtRTuJkd-54" edge="1">
          <mxGeometry relative="1" as="geometry" />
        </mxCell>
        <mxCell id="RJ1wGjR5T8bTYtRTuJkd-46" value="data_ready = true?" style="rhombus;whiteSpace=wrap;html=1;" parent="WIyWlLk6GJQsqaUBKTNV-1" vertex="1">
          <mxGeometry x="329" y="410" width="100" height="90" as="geometry" />
        </mxCell>
        <mxCell id="RJ1wGjR5T8bTYtRTuJkd-48" value="No" style="text;html=1;strokeColor=none;fillColor=none;align=center;verticalAlign=middle;whiteSpace=wrap;rounded=0;" parent="WIyWlLk6GJQsqaUBKTNV-1" vertex="1">
          <mxGeometry x="364" y="510" width="60" height="30" as="geometry" />
        </mxCell>
        <mxCell id="RJ1wGjR5T8bTYtRTuJkd-52" value="data_ready set to &lt;b&gt;true&lt;/b&gt;" style="text;html=1;strokeColor=none;fillColor=none;align=center;verticalAlign=middle;whiteSpace=wrap;rounded=0;" parent="WIyWlLk6GJQsqaUBKTNV-1" vertex="1">
          <mxGeometry x="619" y="930" width="60" height="30" as="geometry" />
        </mxCell>
        <mxCell id="RJ1wGjR5T8bTYtRTuJkd-58" style="edgeStyle=orthogonalEdgeStyle;rounded=0;orthogonalLoop=1;jettySize=auto;html=1;exitX=0.5;exitY=1;exitDx=0;exitDy=0;entryX=0.5;entryY=0;entryDx=0;entryDy=0;" parent="WIyWlLk6GJQsqaUBKTNV-1" source="RJ1wGjR5T8bTYtRTuJkd-54" target="RJ1wGjR5T8bTYtRTuJkd-57" edge="1">
          <mxGeometry relative="1" as="geometry" />
        </mxCell>
        <mxCell id="RJ1wGjR5T8bTYtRTuJkd-54" value="&lt;b&gt;runNeuralNetwork()&lt;br&gt;&lt;/b&gt;" style="rounded=1;whiteSpace=wrap;html=1;" parent="WIyWlLk6GJQsqaUBKTNV-1" vertex="1">
          <mxGeometry x="89" y="430" width="120" height="50" as="geometry" />
        </mxCell>
        <mxCell id="RJ1wGjR5T8bTYtRTuJkd-56" value="Yes" style="text;html=1;strokeColor=none;fillColor=none;align=center;verticalAlign=middle;whiteSpace=wrap;rounded=0;" parent="WIyWlLk6GJQsqaUBKTNV-1" vertex="1">
          <mxGeometry x="249" y="430" width="60" height="30" as="geometry" />
        </mxCell>
        <mxCell id="RJ1wGjR5T8bTYtRTuJkd-59" style="edgeStyle=orthogonalEdgeStyle;rounded=0;orthogonalLoop=1;jettySize=auto;html=1;exitX=0.5;exitY=1;exitDx=0;exitDy=0;entryX=0;entryY=0.5;entryDx=0;entryDy=0;" parent="WIyWlLk6GJQsqaUBKTNV-1" source="RJ1wGjR5T8bTYtRTuJkd-57" target="RJ1wGjR5T8bTYtRTuJkd-1" edge="1">
          <mxGeometry relative="1" as="geometry">
            <Array as="points">
              <mxPoint x="149" y="600" />
              <mxPoint x="39" y="600" />
              <mxPoint x="39" y="315" />
            </Array>
          </mxGeometry>
        </mxCell>
        <mxCell id="RJ1wGjR5T8bTYtRTuJkd-57" value="&lt;b&gt;printSerialData()&lt;br&gt;&lt;/b&gt;" style="rounded=1;whiteSpace=wrap;html=1;" parent="WIyWlLk6GJQsqaUBKTNV-1" vertex="1">
          <mxGeometry x="89" y="510" width="120" height="50" as="geometry" />
        </mxCell>
        <mxCell id="RJ1wGjR5T8bTYtRTuJkd-60" value="data_ready set to &lt;b&gt;false&lt;/b&gt;" style="text;html=1;strokeColor=none;fillColor=none;align=center;verticalAlign=middle;whiteSpace=wrap;rounded=0;" parent="WIyWlLk6GJQsqaUBKTNV-1" vertex="1">
          <mxGeometry x="79" y="280" width="77.5" height="30" as="geometry" />
        </mxCell>
        <mxCell id="RJ1wGjR5T8bTYtRTuJkd-61" value="&lt;b&gt;&lt;font style=&quot;font-size: 14px;&quot;&gt;Written Digits Recognition PSoC 4&lt;/font&gt;&lt;/b&gt;" style="rounded=0;whiteSpace=wrap;html=1;" parent="WIyWlLk6GJQsqaUBKTNV-1" vertex="1">
          <mxGeometry x="319" y="10" width="120" height="60" as="geometry" />
        </mxCell>
      </root>
    </mxGraphModel>
  </diagram>
</mxfile>
